# xmcd CD database file
#
# Track frame offsets:
#	150
#	19316
#	35968
#	59824
#	85282
#	114089
#	130595
#	154036
#	172190
#	187846
#
# Disc length: 2847 seconds
#
# Revision: 2
# Processed by: cddbd v1.5.1PL0 Copyright (c) Steve Scherf et al.
# Submitted via: CDex 1.51
#
DISCID=840b1d0a
DTITLE=Slobodan Trkulja and Balkanopolis - Prizivanje kise
DYEAR=2002
DGENRE=Jazz
TTITLE0=Prizivanje Kise
TTITLE1=Odeno Oro...
TTITLE2=All The Things U R (Not Able To Play In 11/8)
TTITLE3=Lepe Moje Crne Oci
TTITLE4=Pitagorino Oro
TTITLE5=Hajducki Cocek
TTITLE6=Pesma Za Moju Jelenu
TTITLE7=Aleksandar
TTITLE8=Ne Stoj....
TTITLE9=2 Puta Dupli Blizanci
EXTD=YEAR: 2002
EXTT0=
EXTT1=
EXTT2=
EXTT3=
EXTT4=
EXTT5=
EXTT6=
EXTT7=
EXTT8=
EXTT9=
PLAYORDER=
